<svg xmlns="http://www.w3.org/2000/svg" xmlns:xlink="http://www.w3.org/1999/xlink" width="500" zoomAndPan="magnify" viewBox="0 0 375 374.999991" height="500" preserveAspectRatio="xMidYMid meet" version="1.0"><defs><g/><clipPath id="8c117e4d1e"><path d="M 89.914062 210.816406 L 182.804688 210.816406 L 182.804688 221.148438 L 89.914062 221.148438 Z M 89.914062 210.816406 " clip-rule="nonzero"/></clipPath><clipPath id="77aa1fa56b"><path d="M 194.894531 152.109375 L 287.789062 152.109375 L 287.789062 162.4375 L 194.894531 162.4375 Z M 194.894531 152.109375 " clip-rule="nonzero"/></clipPath></defs><g clip-path="url(#8c117e4d1e)"><path fill="#ffffff" d="M 89.914062 210.816406 L 182.800781 210.816406 L 182.800781 221.148438 L 89.914062 221.148438 Z M 89.914062 210.816406 " fill-opacity="1" fill-rule="nonzero"/></g><g clip-path="url(#77aa1fa56b)"><path fill="#008cff" d="M 194.894531 152.109375 L 287.785156 152.109375 L 287.785156 162.4375 L 194.894531 162.4375 Z M 194.894531 152.109375 " fill-opacity="1" fill-rule="nonzero"/></g><g fill="#008cff" fill-opacity="1"><g transform="translate(41.390925, 196.499987)"><g><path d="M 2.34375 0 L 2.34375 -19.59375 L 10.71875 -19.59375 C 12.207031 -19.59375 13.503906 -19.320312 14.609375 -18.78125 C 15.710938 -18.238281 16.5625 -17.460938 17.15625 -16.453125 C 17.75 -15.441406 18.046875 -14.238281 18.046875 -12.84375 C 18.046875 -11.40625 17.71875 -10.164062 17.0625 -9.125 C 16.414062 -8.09375 15.503906 -7.316406 14.328125 -6.796875 L 18.390625 0 L 13.234375 0 L 9.734375 -6.09375 L 6.796875 -6.09375 L 6.796875 0 Z M 6.75 -9.84375 L 10.125 -9.84375 C 11.226562 -9.84375 12.070312 -10.097656 12.65625 -10.609375 C 13.25 -11.128906 13.546875 -11.863281 13.546875 -12.8125 C 13.546875 -13.769531 13.25 -14.503906 12.65625 -15.015625 C 12.070312 -15.523438 11.226562 -15.78125 10.125 -15.78125 L 6.75 -15.78125 Z M 6.75 -9.84375 "/></g></g></g><g fill="#008cff" fill-opacity="1"><g transform="translate(66.886291, 196.499987)"><g><path d="M 2.34375 0 L 2.34375 -19.59375 L 15.21875 -19.59375 L 15.21875 -15.84375 L 6.765625 -15.84375 L 6.765625 -11.78125 L 14.46875 -11.78125 L 14.46875 -8.0625 L 6.765625 -8.0625 L 6.765625 -3.78125 L 15.53125 -3.78125 L 15.53125 0 Z M 2.34375 0 "/></g></g></g><g fill="#008cff" fill-opacity="1"><g transform="translate(89.639184, 196.499987)"><g><path d="M 2.34375 0 L 2.34375 -19.59375 L 6.125 -19.59375 L 13.09375 -9.4375 L 20.03125 -19.59375 L 23.78125 -19.59375 L 23.78125 0 L 19.359375 0 L 19.359375 -11.78125 L 14.609375 -4.84375 L 11.53125 -4.84375 L 6.765625 -11.8125 L 6.765625 0 Z M 2.34375 0 "/></g></g></g><g fill="#008cff" fill-opacity="1"><g transform="translate(121.570962, 196.499987)"><g><path d="M 11.640625 0.390625 C 9.609375 0.390625 7.800781 -0.0390625 6.21875 -0.90625 C 4.644531 -1.769531 3.414062 -2.96875 2.53125 -4.5 C 1.644531 -6.03125 1.203125 -7.796875 1.203125 -9.796875 C 1.203125 -11.785156 1.644531 -13.546875 2.53125 -15.078125 C 3.414062 -16.609375 4.644531 -17.804688 6.21875 -18.671875 C 7.800781 -19.546875 9.609375 -19.984375 11.640625 -19.984375 C 13.691406 -19.984375 15.5 -19.546875 17.0625 -18.671875 C 18.632812 -17.804688 19.867188 -16.609375 20.765625 -15.078125 C 21.660156 -13.546875 22.109375 -11.785156 22.109375 -9.796875 C 22.109375 -7.796875 21.660156 -6.03125 20.765625 -4.5 C 19.867188 -2.96875 18.632812 -1.769531 17.0625 -0.90625 C 15.5 -0.0390625 13.691406 0.390625 11.640625 0.390625 Z M 5.734375 -9.796875 C 5.734375 -8.617188 5.984375 -7.582031 6.484375 -6.6875 C 6.992188 -5.789062 7.691406 -5.085938 8.578125 -4.578125 C 9.460938 -4.078125 10.484375 -3.828125 11.640625 -3.828125 C 12.816406 -3.828125 13.847656 -4.078125 14.734375 -4.578125 C 15.617188 -5.085938 16.304688 -5.789062 16.796875 -6.6875 C 17.296875 -7.582031 17.546875 -8.617188 17.546875 -9.796875 C 17.546875 -10.972656 17.296875 -12.007812 16.796875 -12.90625 C 16.304688 -13.800781 15.617188 -14.5 14.734375 -15 C 13.847656 -15.5 12.816406 -15.75 11.640625 -15.75 C 10.484375 -15.75 9.460938 -15.5 8.578125 -15 C 7.691406 -14.5 6.992188 -13.800781 6.484375 -12.90625 C 5.984375 -12.007812 5.734375 -10.972656 5.734375 -9.796875 Z M 5.734375 -9.796875 "/></g></g></g><g fill="#008cff" fill-opacity="1"><g transform="translate(150.676306, 196.499987)"><g><path d="M 7.046875 0 L 7.046875 -15.421875 L 0.84375 -15.421875 L 0.84375 -19.59375 L 17.71875 -19.59375 L 17.71875 -15.421875 L 11.5 -15.421875 L 11.5 0 Z M 7.046875 0 "/></g></g></g><g fill="#008cff" fill-opacity="1"><g transform="translate(175.024309, 196.499987)"><g><path d="M 2.34375 0 L 2.34375 -19.59375 L 15.21875 -19.59375 L 15.21875 -15.84375 L 6.765625 -15.84375 L 6.765625 -11.78125 L 14.46875 -11.78125 L 14.46875 -8.0625 L 6.765625 -8.0625 L 6.765625 -3.78125 L 15.53125 -3.78125 L 15.53125 0 Z M 2.34375 0 "/></g></g></g><g fill="#ffffff" fill-opacity="1"><g transform="translate(199.539366, 196.499987)"><g><path d="M 1.03125 0 L 1.03125 -4.171875 L 3.921875 -4.171875 C 5.109375 -4.171875 5.941406 -4.453125 6.421875 -5.015625 C 6.898438 -5.585938 7.140625 -6.414062 7.140625 -7.5 L 7.140625 -19.59375 L 11.609375 -19.59375 L 11.609375 -7.15625 C 11.609375 -4.90625 10.984375 -3.148438 9.734375 -1.890625 C 8.484375 -0.628906 6.640625 0 4.203125 0 Z M 1.03125 0 "/></g></g></g><g fill="#ffffff" fill-opacity="1"><g transform="translate(219.241962, 196.499987)"><g><path d="M 11.640625 0.390625 C 9.609375 0.390625 7.800781 -0.0390625 6.21875 -0.90625 C 4.644531 -1.769531 3.414062 -2.96875 2.53125 -4.5 C 1.644531 -6.03125 1.203125 -7.796875 1.203125 -9.796875 C 1.203125 -11.785156 1.644531 -13.546875 2.53125 -15.078125 C 3.414062 -16.609375 4.644531 -17.804688 6.21875 -18.671875 C 7.800781 -19.546875 9.609375 -19.984375 11.640625 -19.984375 C 13.691406 -19.984375 15.5 -19.546875 17.0625 -18.671875 C 18.632812 -17.804688 19.867188 -16.609375 20.765625 -15.078125 C 21.660156 -13.546875 22.109375 -11.785156 22.109375 -9.796875 C 22.109375 -7.796875 21.660156 -6.03125 20.765625 -4.5 C 19.867188 -2.96875 18.632812 -1.769531 17.0625 -0.90625 C 15.5 -0.0390625 13.691406 0.390625 11.640625 0.390625 Z M 5.734375 -9.796875 C 5.734375 -8.617188 5.984375 -7.582031 6.484375 -6.6875 C 6.992188 -5.789062 7.691406 -5.085938 8.578125 -4.578125 C 9.460938 -4.078125 10.484375 -3.828125 11.640625 -3.828125 C 12.816406 -3.828125 13.847656 -4.078125 14.734375 -4.578125 C 15.617188 -5.085938 16.304688 -5.789062 16.796875 -6.6875 C 17.296875 -7.582031 17.546875 -8.617188 17.546875 -9.796875 C 17.546875 -10.972656 17.296875 -12.007812 16.796875 -12.90625 C 16.304688 -13.800781 15.617188 -14.5 14.734375 -15 C 13.847656 -15.5 12.816406 -15.75 11.640625 -15.75 C 10.484375 -15.75 9.460938 -15.5 8.578125 -15 C 7.691406 -14.5 6.992188 -13.800781 6.484375 -12.90625 C 5.984375 -12.007812 5.734375 -10.972656 5.734375 -9.796875 Z M 5.734375 -9.796875 "/></g></g></g><g fill="#ffffff" fill-opacity="1"><g transform="translate(248.34731, 196.499987)"><g><path d="M 2.34375 0 L 2.34375 -19.59375 L 11.109375 -19.59375 C 13.109375 -19.59375 14.691406 -19.113281 15.859375 -18.15625 C 17.035156 -17.207031 17.625 -15.929688 17.625 -14.328125 C 17.625 -13.410156 17.421875 -12.578125 17.015625 -11.828125 C 16.609375 -11.085938 16.03125 -10.503906 15.28125 -10.078125 C 16.207031 -9.660156 16.925781 -9.050781 17.4375 -8.25 C 17.957031 -7.445312 18.21875 -6.523438 18.21875 -5.484375 C 18.21875 -4.378906 17.9375 -3.414062 17.375 -2.59375 C 16.8125 -1.78125 16.03125 -1.144531 15.03125 -0.6875 C 14.039062 -0.226562 12.882812 0 11.5625 0 Z M 6.75 -3.53125 L 10.890625 -3.53125 C 11.765625 -3.53125 12.441406 -3.734375 12.921875 -4.140625 C 13.410156 -4.546875 13.65625 -5.125 13.65625 -5.875 C 13.65625 -6.625 13.410156 -7.203125 12.921875 -7.609375 C 12.441406 -8.023438 11.765625 -8.234375 10.890625 -8.234375 L 6.75 -8.234375 Z M 6.75 -11.609375 L 10.4375 -11.609375 C 11.289062 -11.609375 11.945312 -11.800781 12.40625 -12.1875 C 12.863281 -12.582031 13.09375 -13.140625 13.09375 -13.859375 C 13.09375 -14.566406 12.863281 -15.109375 12.40625 -15.484375 C 11.945312 -15.867188 11.289062 -16.0625 10.4375 -16.0625 L 6.75 -16.0625 Z M 6.75 -11.609375 "/></g></g></g><g fill="#ffffff" fill-opacity="1"><g transform="translate(273.422909, 196.499987)"><g><path d="M 9.171875 0.390625 C 7.535156 0.390625 6.125 0.117188 4.9375 -0.421875 C 3.75 -0.960938 2.832031 -1.726562 2.1875 -2.71875 C 1.550781 -3.71875 1.234375 -4.890625 1.234375 -6.234375 L 5.59375 -6.234375 C 5.59375 -5.304688 5.914062 -4.582031 6.5625 -4.0625 C 7.207031 -3.539062 8.070312 -3.28125 9.15625 -3.28125 C 10.082031 -3.28125 10.816406 -3.457031 11.359375 -3.8125 C 11.898438 -4.175781 12.171875 -4.6875 12.171875 -5.34375 C 12.171875 -6.03125 11.84375 -6.585938 11.1875 -7.015625 C 10.539062 -7.453125 9.523438 -7.816406 8.140625 -8.109375 C 5.847656 -8.597656 4.148438 -9.335938 3.046875 -10.328125 C 1.953125 -11.316406 1.40625 -12.601562 1.40625 -14.1875 C 1.40625 -15.976562 2.054688 -17.390625 3.359375 -18.421875 C 4.660156 -19.460938 6.441406 -19.984375 8.703125 -19.984375 C 10.253906 -19.984375 11.597656 -19.71875 12.734375 -19.1875 C 13.867188 -18.65625 14.75 -17.90625 15.375 -16.9375 C 16 -15.976562 16.3125 -14.835938 16.3125 -13.515625 L 12.03125 -13.515625 C 12.03125 -14.390625 11.738281 -15.078125 11.15625 -15.578125 C 10.582031 -16.085938 9.785156 -16.34375 8.765625 -16.34375 C 7.828125 -16.34375 7.085938 -16.160156 6.546875 -15.796875 C 6.003906 -15.429688 5.734375 -14.921875 5.734375 -14.265625 C 5.734375 -13.671875 6.03125 -13.164062 6.625 -12.75 C 7.226562 -12.34375 8.273438 -11.960938 9.765625 -11.609375 C 12.210938 -11.035156 13.972656 -10.257812 15.046875 -9.28125 C 16.128906 -8.3125 16.671875 -7.054688 16.671875 -5.515625 C 16.671875 -3.671875 16.003906 -2.222656 14.671875 -1.171875 C 13.335938 -0.128906 11.503906 0.390625 9.171875 0.390625 Z M 9.171875 0.390625 "/></g></g></g></svg>